<?xml version="1.0" encoding="UTF-8" standalone="no"?>
<!-- Created with Inkscape (http://www.inkscape.org/) -->

<svg
   width="210mm"
   height="297mm"
   viewBox="0 0 210 297"
   version="1.1"
   id="svg1"
   xml:space="preserve"
   sodipodi:docname="PlanovaIcon.svg"
   inkscape:version="1.4.2 (2aeb623e1d, 2025-05-12)"
   xmlns:inkscape="http://www.inkscape.org/namespaces/inkscape"
   xmlns:sodipodi="http://sodipodi.sourceforge.net/DTD/sodipodi-0.dtd"
   xmlns="http://www.w3.org/2000/svg"
   xmlns:svg="http://www.w3.org/2000/svg"><sodipodi:namedview
     id="namedview1"
     pagecolor="#505050"
     bordercolor="#eeeeee"
     borderopacity="1"
     inkscape:showpageshadow="0"
     inkscape:pageopacity="0"
     inkscape:pagecheckerboard="0"
     inkscape:deskcolor="#505050"
     inkscape:document-units="mm"
     inkscape:zoom="0.89619809"
     inkscape:cx="396.67569"
     inkscape:cy="561.25984"
     inkscape:window-width="3828"
     inkscape:window-height="2108"
     inkscape:window-x="0"
     inkscape:window-y="0"
     inkscape:window-maximized="1"
     inkscape:current-layer="layer1" /><defs
     id="defs1" /><g
     inkscape:label="Layer 1"
     inkscape:groupmode="layer"
     id="layer1"><path
       id="rect1"
       style="opacity:1;fill:#d79921;fill-opacity:1;stroke-width:0.315926"
       d="M 91.489506 45.908309 C 67.723846 45.851759 57.963955 45.913279 56.823405 46.127934 C 51.741435 47.084364 47.225008 51.641605 46.133618 56.913839 C 45.928588 57.904076 45.844331 73.719822 45.847331 110.75655 C 45.851331 168.2396 45.756255 164.77485 47.419845 168.07036 C 48.412195 170.0362 50.655587 172.46765 52.496537 173.57235 C 55.373147 175.29846 52.502554 175.19915 100.13601 175.21825 C 130.715 175.23055 143.86071 175.15014 144.85059 174.94436 C 149.78046 173.91944 153.91148 169.61203 154.83138 164.53776 C 155.12162 162.93679 155.22412 159.6254 154.9833 159.6254 C 154.9102 159.6254 154.40415 160.12658 153.85883 160.73903 C 145.51369 170.1114 144.34969 171.18886 141.48594 172.19724 C 140.76059 172.45265 139.17665 172.72075 137.96574 172.79255 C 135.20102 172.95644 132.94522 172.39055 130.83284 171.00403 C 129.95788 170.42973 125.40039 166.06087 120.03195 160.65066 C 111.86485 152.42 110.64431 151.08354 109.91732 149.57123 C 107.76674 145.09746 108.56449 140.26479 112.02572 136.79578 C 114.51295 134.30296 117.58074 133.25948 120.94197 133.76341 C 123.3573 134.12552 124.69293 135.03928 129.37247 139.52895 C 131.79879 141.85683 133.87351 143.72934 133.98304 143.68994 C 134.09258 143.65054 138.88836 138.20076 144.63975 131.57957 L 155.09648 119.54102 L 155.04015 98.109774 L 154.98382 76.678524 L 154.20919 74.958732 C 153.49549 73.375129 152.42657 72.226816 140.71493 60.459359 C 129.40894 49.099472 127.80593 47.585943 126.28221 46.833317 L 124.56811 45.986857 L 91.489506 45.908309 z M 88.308822 72.180607 C 111.07678 72.180607 111.15936 72.182467 111.90376 72.734062 C 114.68969 74.7983 114.4712 78.402563 111.46813 79.91967 L 110.28939 80.514982 L 88.308822 80.514982 L 66.328251 80.514982 L 65.163464 79.91967 C 63.463854 79.051213 62.908822 78.155964 62.908822 76.281649 C 62.908822 74.608372 63.342006 73.762913 64.730416 72.72631 C 65.455176 72.185195 65.645582 72.180607 88.308822 72.180607 z M 130.64991 93.208781 L 131.82141 93.807194 C 133.51285 94.671314 134.08174 95.576008 134.08174 97.40129 C 134.08174 99.24462 133.33089 100.44882 131.72684 101.17729 C 130.68828 101.64892 129.28017 101.66976 98.49528 101.66976 C 67.7104 101.66976 66.302793 101.64892 65.264233 101.17729 C 63.660183 100.44882 62.908822 99.24463 62.908822 97.40129 C 62.908822 95.778608 63.354696 94.920167 64.730416 93.892977 C 65.457876 93.349857 65.601794 93.346927 98.055514 93.278027 L 130.64991 93.208781 z M 88.725334 114.51394 L 111.63091 114.51394 L 112.69493 115.21777 C 115.25537 116.91233 115.24853 120.25311 112.68098 122.17032 C 111.95791 122.7102 111.71666 122.71655 89.149597 122.77855 C 67.364287 122.83845 66.300433 122.81933 65.264233 122.34654 C 63.659223 121.61418 62.908822 120.41053 62.908822 118.56796 C 62.908822 116.85258 63.446142 115.91188 64.921102 115.04311 C 65.800822 114.52494 66.295314 114.51394 88.725334 114.51394 z M 171.13477 115.48287 C 170.91742 115.47436 170.69889 115.47769 170.47952 115.49424 C 168.22702 115.66424 167.22768 116.29983 164.78374 119.11573 C 163.57045 120.51368 158.54701 126.30644 153.62111 131.98833 C 148.69522 137.67021 142.46726 144.84373 139.78062 147.92947 L 134.89564 153.53998 L 133.82749 152.53333 C 133.23991 151.97984 130.31803 149.1996 127.33486 146.35489 C 124.35168 143.51018 121.65102 141.04631 121.33316 140.87926 C 120.52522 140.45464 118.45805 140.50011 117.56388 140.96246 C 115.69649 141.92813 114.6509 144.22575 115.1816 146.19779 C 115.44629 147.18135 116.59375 148.41648 124.33556 156.05352 C 130.28379 161.92125 133.62504 165.0234 134.52409 165.51238 C 136.32081 166.48957 138.44622 166.51746 140.27981 165.58834 C 141.31229 165.06514 142.86315 163.46355 148.15736 157.4524 C 154.38104 150.38591 170.48665 131.92909 174.61622 127.13074 C 176.51848 124.92041 177.34111 123.2826 177.34111 121.7073 C 177.34111 118.47957 174.39509 115.61063 171.13477 115.48287 z M 130.54294 193.35977 C 129.03858 193.28399 127.42954 193.46505 125.74736 193.92821 C 121.7342 195.03319 118.9502 198.30482 117.96644 203.07184 C 116.47016 210.32233 119.50979 217.32768 125.01718 219.3215 C 127.32453 220.15682 129.10943 220.32606 131.5682 219.94265 C 137.75697 218.97759 141.61306 213.90206 141.61306 206.72123 C 141.61306 198.8365 137.06181 193.68818 130.54294 193.35977 z M 49.128784 193.46519 C 47.2321 193.4161 47.430697 194.00362 47.430697 206.54553 C 47.430697 216.00367 47.509014 219.12905 47.752124 219.37214 C 47.992834 219.61289 50.00222 219.6763 55.75577 219.6238 L 63.437988 219.55352 L 63.437988 217.43686 L 63.437988 215.32019 L 58.080176 215.24836 L 52.722363 215.17705 L 52.722363 204.60818 C 52.722363 192.48491 52.96203 193.49207 50.07653 193.49207 C 49.713361 193.49207 49.399739 193.47221 49.128784 193.46519 z M 77.990072 193.49207 C 76.681922 193.49207 75.671073 193.62136 75.404183 193.82279 C 74.963323 194.15552 74.660853 194.97048 69.371993 210.09467 C 66.579033 218.08143 66.2774 219.12957 66.65743 219.5096 C 66.90664 219.75881 70.777285 219.72157 71.179635 219.46619 C 71.362815 219.34991 71.909301 218.07188 72.394031 216.62605 L 73.275114 213.99727 L 77.990072 213.99727 L 82.705029 213.99727 L 83.586629 216.62605 C 84.071349 218.07188 84.617845 219.34991 84.801025 219.46619 C 85.384095 219.83635 89.13727 219.72538 89.46689 219.32821 C 89.69458 219.05386 88.74491 216.08103 85.38807 206.56207 C 82.961 199.67966 80.817337 194.00623 80.574927 193.82279 C 80.308607 193.62126 79.298852 193.49207 77.990072 193.49207 z M 145.33842 193.49207 C 143.34873 193.49207 142.6807 193.7362 142.6807 194.46358 C 142.6807 194.9676 151.1575 218.97178 151.47086 219.35509 C 151.65548 219.58093 152.60936 219.68582 154.47791 219.68582 C 156.91375 219.68582 157.24446 219.62932 157.48858 219.17319 C 157.72068 218.7395 165.56072 196.57817 166.07255 194.90903 C 166.38235 193.89873 165.62988 193.49207 163.45049 193.49207 C 162.06401 193.49207 161.38847 193.60743 161.10283 193.89307 C 160.88227 194.11364 160.3876 195.33403 160.00315 196.60505 C 159.61871 197.87607 158.24262 202.2866 156.94546 206.40652 C 155.64831 210.52644 154.58695 213.96964 154.58695 214.05774 C 154.58695 214.60171 154.04379 212.98726 151.27139 204.20459 C 149.57226 198.82189 147.99759 194.20975 147.77186 193.95509 C 147.44849 193.59027 146.9321 193.49207 145.33842 193.49207 z M 176.40732 193.49207 C 174.17533 193.49207 173.73029 193.61727 173.33516 194.35558 C 173.05605 194.8771 170.60999 201.7568 166.59862 213.30378 C 165.08179 217.67005 164.70194 219.04329 164.93412 219.32305 C 165.41311 219.90021 169.20487 219.82089 169.72297 219.22279 C 169.94356 218.96813 170.45701 217.65845 170.86399 216.31238 L 171.604 213.86498 L 176.30293 213.86498 L 181.00187 213.86498 L 181.85247 216.44467 C 182.3205 217.86349 182.82502 219.17766 182.97333 219.3649 C 183.16479 219.60659 183.90238 219.68339 185.51736 219.62949 C 187.5624 219.56129 187.79945 219.50011 187.86295 219.02436 C 187.98222 218.13048 179.52016 194.48216 178.89244 193.95509 C 178.47747 193.60667 177.86221 193.49207 176.40732 193.49207 z M 31.196545 193.75665 C 27.441385 193.75665 26.250852 193.84045 25.851652 194.13234 C 25.355962 194.4952 25.338809 194.92641 25.357109 206.85352 C 25.373009 217.25053 25.435714 219.23685 25.753984 219.43829 C 26.319834 219.79639 29.80709 219.741 30.18007 219.36801 C 30.39997 219.14808 30.497363 217.77652 30.497363 214.90471 L 30.497363 210.75871 L 34.003092 210.62022 C 38.384062 210.44716 39.652002 210.03663 41.495142 208.19349 C 43.166012 206.52262 43.72653 205.01311 43.72653 202.18611 C 43.72653 199.50988 43.058441 197.68284 41.546301 196.2242 C 39.366891 194.1219 37.834845 193.75665 31.196545 193.75665 z M 95.596749 193.75665 C 94.376279 193.75665 93.44841 193.88236 93.25684 194.07394 C 92.79966 194.53111 92.79966 218.91135 93.25684 219.36852 C 93.70735 219.81903 97.285876 219.78957 97.665356 219.33235 C 97.862426 219.0949 97.981642 216.29303 98.028642 210.78403 L 98.098405 202.58918 L 102.72861 209.9784 C 105.27522 214.04243 107.72164 217.85942 108.16497 218.46057 L 108.97113 219.55352 L 111.07022 219.63207 C 112.81684 219.69727 113.22553 219.633 113.50522 219.2507 C 113.93918 218.65723 113.99773 195.0726 113.56723 194.26825 C 113.33461 193.83358 113.00071 193.75665 111.35083 193.75665 C 110.0535 193.75665 109.31056 193.87371 109.11479 194.1096 C 108.91756 194.34724 108.79912 197.16906 108.75202 202.73233 L 108.68174 211.00159 L 103.54717 202.84188 C 100.72312 198.35422 98.234299 194.47433 98.016239 194.21967 C 97.702819 193.85365 97.195739 193.75665 95.596749 193.75665 z M 129.6417 197.99567 C 132.47923 198.00647 134.42508 199.46024 135.53746 202.40005 C 136.32897 204.49188 136.38984 208.53148 135.66407 210.82227 C 134.52884 214.40544 130.9316 216.28771 127.53588 215.07576 C 126.00838 214.53059 125.2523 213.93684 124.42445 212.63147 C 123.47599 211.13589 123.10063 209.43331 123.10463 206.64217 C 123.11263 201.00276 125.39852 197.97957 129.6417 197.99567 z M 30.497363 198.19462 L 33.209342 198.30417 C 37.100732 198.46146 38.34497 199.26228 38.6302 201.79285 C 38.80884 203.37771 38.124635 204.74643 36.821525 205.41123 C 36.017565 205.82138 35.265639 205.92748 33.154049 205.92748 L 30.497363 205.92748 L 30.497363 202.06105 L 30.497363 198.19462 z M 77.982837 199.84207 C 78.054737 199.84207 80.321611 206.55281 81.177991 209.30092 C 81.256591 209.55324 80.502743 209.63165 77.997823 209.63165 L 74.714819 209.63165 L 75.083272 208.50717 C 75.285902 207.8887 75.999522 205.68606 76.669222 203.61238 C 77.338912 201.53871 77.930237 199.84207 77.982837 199.84207 z M 176.26004 200.03637 C 176.38778 200.01362 177.16834 202.09049 178.01859 204.72239 L 179.59524 209.60323 L 176.35099 209.68333 C 174.56674 209.72753 173.107 209.70737 173.10726 209.63837 C 173.10826 209.30683 176.08922 200.21349 176.25332 200.0405 C 176.25535 200.03837 176.2575 200.03682 176.26004 200.03637 z " /><path
       style="fill:#3c3836;fill-opacity:1"
       d="m 42.907413,249.77481 c 4.63483,0.32116 120.638847,0.32075 124.354157,-4.4e-4 11.98392,-1.036 22.06146,-5.84264 30.29817,-14.4512 3.29483,-3.44358 5.68526,-6.84321 7.78082,-11.06574 2.59493,-5.22875 3.99777,-10.01186 4.63352,-15.79842 0.3844,-3.50218 0.39046,-138.261815 0.006,-141.617925 -2.07761,-18.13629 -14.71333,-33.547606 -32.21861,-39.295825 -1.72969,-0.567979 -4.50219,-1.307591 -6.16112,-1.643583 l -3.01623,-0.610893 H 104.95183 41.319543 l -2.99874,0.607545 C 21.800333,29.245383 8.601044,40.237922 2.678064,55.582052 c -0.93171,2.413693 -1.77178997,5.460476 -2.44487994,8.867063 -0.37321,1.888861 -0.42881,9.577298 -0.51691,71.437485 -0.0699,49.13353 -0.014,70.16839 0.19225,72.23125 1.03772997,10.38149 5.19245994,19.55266 12.22324894,26.98167 8.01271,8.46653 19.37664,13.88546 30.77527,14.67529 z m 81.951407,-30.77635 c -5.50739,-1.99382 -8.54699,-8.99909 -7.05071,-16.24958 0.98376,-4.76702 3.76806,-8.03891 7.78122,-9.14389 8.97159,-2.47023 15.86581,3.08878 15.86581,12.79307 0,7.18083 -3.85621,12.25651 -10.04498,13.22157 -2.45877,0.38341 -4.24399,0.21415 -6.55134,-0.62117 z m 10.64688,-8.49936 c 0.72577,-2.29079 0.66517,-6.33038 -0.12634,-8.42221 -1.11238,-2.93981 -3.0584,-4.39347 -5.89593,-4.40427 -4.24318,-0.0161 -6.5288,3.00686 -6.5368,8.64627 -0.004,2.79114 0.37107,4.49371 1.31953,5.98929 0.82785,1.30537 1.58401,1.89947 3.11151,2.44464 3.39572,1.21195 6.9928,-0.67055 8.12803,-4.25372 z m -105.483867,8.54603 c -0.37298,0.37299 -3.86026,0.4283 -4.42611,0.0702 -0.31827,-0.20144 -0.38097,-2.18792 -0.39687,-12.58493 -0.0183,-11.92711 -0.001,-12.35847 0.49469,-12.72133 0.3992,-0.29189 1.58963,-0.37559 5.34479,-0.37559 6.6383,0 8.17047,0.36529 10.34988,2.46759 1.51214,1.45864 2.18028,3.28563 2.18028,5.96186 0,2.827 -0.56083,4.33672 -2.2317,6.00759 -1.84314,1.84314 -3.11076,2.25377 -7.49173,2.42683 l -3.50573,0.13849 v 4.1459 c 0,2.87181 -0.0976,4.24347 -0.3175,4.4634 z m 0.3175,-13.44082 h 2.65637 c 2.11159,0 2.8638,-0.10582 3.66776,-0.51597 1.30311,-0.6648 1.98742,-2.03385 1.80878,-3.61871 -0.28523,-2.53057 -1.52954,-3.33135 -5.42093,-3.48864 l -2.71198,-0.10962 v 3.86647 z m 32.94061,13.62614 -7.68223,0.07 c -5.75355,0.0525 -7.76293,-0.0106 -8.00364,-0.25135 -0.24311,-0.24309 -0.32141,-3.36875 -0.32141,-12.82689 0,-14.33361 -0.25952,-13.05327 2.64583,-13.05327 2.8855,0 2.64584,-1.00694 2.64584,11.11633 v 10.56855 l 5.35781,0.0716 5.3578,0.0716 v 2.11666 z m 7.74138,-0.0873 c -0.40235,0.25538 -4.27307,0.29231 -4.52228,0.0431 -0.38003,-0.38003 -0.0779,-1.42776 2.71506,-9.41452 5.28886,-15.12419 5.59104,-15.93938 6.0319,-16.27211 0.26689,-0.20143 1.27787,-0.33073 2.58602,-0.33073 1.30878,0 2.31856,0.1292 2.58488,0.33073 0.24241,0.18344 2.38582,5.85684 4.81289,12.73925 3.35684,9.51896 4.30672,12.4918 4.07903,12.76615 -0.32962,0.39717 -4.08302,0.50824 -4.66609,0.13808 -0.18318,-0.11628 -0.72965,-1.39438 -1.21437,-2.84021 l -0.88133,-2.62879 h -4.71501 -4.715 l -0.88133,2.62879 c -0.48473,1.44583 -1.03119,2.72393 -1.21437,2.84021 z m 3.53553,-9.83468 h 3.28293 c 2.50492,0 3.25846,-0.0784 3.17986,-0.33072 -0.85638,-2.74811 -3.12308,-9.45886 -3.19498,-9.45886 -0.0526,0 -0.64364,1.69664 -1.31333,3.77031 -0.6697,2.07368 -1.38342,4.27633 -1.58605,4.8948 z m 22.95038,9.701 c -0.37948,0.45722 -3.95826,0.48621 -4.40877,0.0357 -0.45718,-0.45717 -0.45718,-24.83699 0,-25.29416 0.19157,-0.19158 1.11977,-0.3175 2.34024,-0.3175 1.59899,0 2.1058,0.097 2.41922,0.46302 0.21806,0.25466 2.707067,4.13475 5.531117,8.62241 l 5.13463,8.1594 0.07,-8.26919 c 0.0471,-5.56327 0.1659,-8.38478 0.36313,-8.62242 0.19577,-0.23589 0.93848,-0.35322 2.23581,-0.35322 1.64988,0 1.98395,0.0771 2.21657,0.51177 0.4305,0.80435 0.37176,24.3887 -0.0622,24.98217 -0.27969,0.3823 -0.68847,0.4465 -2.43509,0.3813 l -2.09897,-0.0784 -0.80606,-1.093 c -0.44333,-0.60115 -2.88965,-4.41812 -5.43626,-8.48215 l -4.630217,-7.38915 -0.07,8.19507 c -0.047,5.509 -0.16606,8.31085 -0.36313,8.5483 z m 56.812477,0.35317 c -1.86855,0 -2.82217,-0.10489 -3.00679,-0.33073 -0.31336,-0.38331 -8.79026,-24.38739 -8.79026,-24.89141 0,-0.72738 0.66805,-0.97161 2.65774,-0.97161 1.59368,0 2.10981,0.0982 2.43318,0.46302 0.22573,0.25466 1.80063,4.86704 3.49976,10.24974 2.7724,8.78267 3.31557,10.3968 3.31557,9.85283 0,-0.0881 1.06131,-3.53095 2.35846,-7.65087 1.29716,-4.11992 2.67301,-8.53069 3.05745,-9.80171 0.38445,-1.27102 0.87946,-2.49141 1.10002,-2.71198 0.28564,-0.28564 0.96113,-0.40103 2.34761,-0.40103 2.17939,0 2.93189,0.40664 2.62209,1.41694 -0.51183,1.66914 -8.35207,23.83069 -8.58417,24.26438 -0.24412,0.45613 -0.57482,0.51243 -3.01066,0.51243 z m 10.45653,-0.36245 c -0.23218,-0.27976 0.14753,-1.653 1.66436,-6.01927 4.01137,-11.54698 6.45733,-18.42709 6.73644,-18.94861 0.39513,-0.73831 0.84033,-0.86343 3.07231,-0.86343 1.45489,0 2.06991,0.1146 2.48488,0.46302 0.62772,0.52707 9.08975,24.17539 8.97048,25.06927 -0.0635,0.47575 -0.30021,0.53683 -2.34525,0.60503 -1.61498,0.0539 -2.35285,-0.0229 -2.54431,-0.26459 -0.14831,-0.18724 -0.65258,-1.5013 -1.12061,-2.92012 l -0.85095,-2.57969 h -4.69897 -4.69897 l -0.73996,2.44739 c -0.40698,1.34607 -0.92045,2.65576 -1.14104,2.91042 -0.5181,0.5981 -4.30942,0.67774 -4.78841,0.10058 z m 8.17302,-9.68501 c -2.6e-4,0.069 1.45935,0.0894 3.24359,0.0452 l 3.24408,-0.0803 -1.57672,-4.88061 c -0.86719,-2.68433 -1.66143,-4.7913 -1.76497,-4.68216 -0.1641,0.17299 -3.14498,9.26636 -3.14598,9.5979 z m -28.25681,-34.69402 c -0.98988,0.20578 -14.13559,0.28638 -44.714577,0.27408 -47.63345,-0.0191 -44.76284,0.08 -47.63945,-1.64611 -1.84095,-1.1047 -4.08421,-3.53579 -5.07656,-5.50163 -1.66359,-3.29551 -1.56879,0.16904 -1.57279,-57.31401 -0.003,-37.036725 0.0813,-52.852464 0.28633,-53.842701 1.09139,-5.272234 5.608,-9.829314 10.68997,-10.785744 1.14055,-0.214655 10.90042,-0.276605 34.66608,-0.220055 l 33.078597,0.07871 1.71412,0.846671 c 1.52372,0.752626 3.12687,2.266154 14.43286,13.626041 11.71164,11.767457 12.78012,12.915548 13.49382,14.499151 l 0.775,1.719792 0.0563,21.431249 0.0563,21.431236 -10.45707,12.03855 c -5.75139,6.62119 -10.54669,12.0708 -10.65623,12.1102 -0.10953,0.0394 -2.18433,-1.83297 -4.61065,-4.16085 -4.67954,-4.48967 -6.01526,-5.4031 -8.43059,-5.76521 -3.36123,-0.50393 -6.42932,0.53943 -8.91655,3.03225 -3.46123,3.46901 -4.25865,8.3015 -2.10807,12.77527 0.72699,1.51231 1.94722,2.84901 10.11432,11.07967 5.36844,5.41021 9.92635,9.77914 10.80131,10.35344 2.11238,1.38652 4.36782,1.95194 7.13254,1.78805 1.21091,-0.0718 2.79512,-0.33948 3.52047,-0.59489 2.86375,-1.00838 4.02755,-2.08619 12.37269,-11.45856 0.54532,-0.61245 1.05138,-1.11354 1.12448,-1.11354 0.24082,0 0.1386,3.31137 -0.15164,4.91234 -0.9199,5.07427 -5.05114,9.38166 -9.98101,10.40658 z M 65.105873,122.02333 c 1.0362,0.47279 2.1002,0.49209 23.88551,0.43219 22.567067,-0.062 22.808507,-0.0683 23.531577,-0.60818 2.56755,-1.91721 2.57414,-5.25802 0.0137,-6.95258 l -1.06372,-0.70399 H 88.567063 c -22.43002,0 -22.92453,0.011 -23.80425,0.52917 -1.47496,0.86877 -2.01204,1.80975 -2.01204,3.52513 0,1.84257 0.75007,3.0459 2.35508,3.77826 z m 33.23136,-20.67646 c 30.784897,0 32.192837,-0.0209 33.231397,-0.49253 1.60405,-0.72847 2.35507,-1.932596 2.35507,-3.775926 0,-1.82528 -0.56913,-2.73021 -2.26057,-3.59433 l -1.17125,-0.59838 -32.594437,0.0692 c -32.45372,0.0689 -32.59757,0.0716 -33.32503,0.61472 -1.37572,1.02719 -1.82164,1.8861 -1.82164,3.50878 0,1.84334 0.75103,3.047466 2.35508,3.775936 1.03856,0.47163 2.4465,0.49253 33.23138,0.49253 z M 66.170193,80.191824 h 21.98058 21.980597 l 1.17841,-0.595314 c 3.00307,-1.517107 3.2216,-5.121329 0.43567,-7.185567 -0.7444,-0.551595 -0.82671,-0.553495 -23.594677,-0.553495 -22.66324,0 -22.85355,0.0044 -23.57831,0.545515 -1.38841,1.036603 -1.82169,1.88225 -1.82169,3.555527 0,1.874315 0.55476,2.769563 2.25437,3.63802 z m 73.951437,85.073546 c -1.83359,0.92912 -3.9588,0.90099 -5.75552,-0.0762 -0.89905,-0.48898 -4.24061,-3.59113 -10.18884,-9.45886 -7.74181,-7.63704 -8.88895,-8.87217 -9.15364,-9.85573 -0.5307,-1.97204 0.5146,-4.26935 2.38199,-5.23502 0.89417,-0.46235 2.96139,-0.50822 3.76933,-0.0836 0.31786,0.16705 3.0187,2.63122 6.00188,5.47593 2.98317,2.84471 5.9047,5.62505 6.49228,6.17854 l 1.06832,1.00633 4.8848,-5.61042 c 2.68664,-3.08574 8.91509,-10.25924 13.84098,-15.94112 4.9259,-5.68189 9.94888,-11.47447 11.16217,-12.87242 2.44394,-2.8159 3.44353,-3.45141 5.69603,-3.62141 3.50991,-0.26489 6.86166,2.76993 6.86166,6.21284 0,1.5753 -0.82289,3.21291 -2.72514,5.42324 -4.12957,4.79835 -20.23524,23.25548 -26.45892,30.32197 -5.29421,6.01115 -6.8449,7.61274 -7.87738,8.13594 z"
       id="path1-3"
       sodipodi:nodetypes="sssscssscccssscssssssssssssscsssssscssssscssscsssscccccsssscccccsssssssssscccssscssssscsssssscsssscscsscsssssssssssssssssssssssssscccssssccsssssssscssscssccccsssssssssscsssssssscssssssssscssscscccscsssscsssscssscsssssssss" /></g></svg>
